<svg width="162" height="40" fill="none" xmlns="http://www.w3.org/2000/svg"><path d="M96.013 5.709v1.13c0 .565.542 1.13 1.085 1.13h1.627l-3.797 4.52h-2.17V.059h-5.424v1.13c0 .54.553 1.13 1.085 1.13h2.17v19.21h-3.255v2.26h8.679v-2.26h-3.255v-6.78h1.085c.8 0 1.109.079 1.509.739l3.566 6.284c.8 1.423 1.362 2.017 3.062 2.017h1.627v-2.26h-1.085c-.933 0-1.137-.104-1.503-.694L97.685 15c-.666-1.215-1.133-1.389-1.167-1.389l4.919-5.643h2.17v-2.26h-7.594zM117.711 18.14c-.492 0-1.085.582-1.085 1.13v2.26h-8.679l10.849-13.561v-2.26h-13.561v5.65h1.084c.543 0 1.085-.589 1.085-1.13v-2.26h8.137l-10.849 13.56v2.26h14.104v-5.65h-1.085zM82.994 22.094v1.695h2.712v-2.825H84.08c-.526 0-1.085.565-1.085 1.13z" fill="#55BB06"/><path d="M33.632 2.883V1.188c0-.565.56-1.13 1.085-1.13h1.627v2.825h-2.712zM59.67 1.188v4.52h5.966s-.644.653-1.34 1.574c-.402.532-.768.686-1.372.686h-3.255v9.04c0 3.697 2.068 4.521 3.255 4.521 1.187 0 1.627-.565 1.627-.565v2.26s-.36.565-1.627.565c-1.268 0-5.425-.753-5.425-6.78v-9.04h-2.17c-.542 0-1.084-.577-1.084-1.13v-1.13H57.5v-4.52h2.17z" fill="#202123"/><path fill-rule="evenodd" clip-rule="evenodd" d="M13.019 11.924c0-4.692-2.245-6.216-5.967-6.216C3.33 5.708.799 7.831.799 7.831l1.015 1.327a.645.645 0 00.853.17c.824-.499 2.805-1.36 4.385-1.36 2.312 0 3.797.692 3.797 3.956v.565H9.764c-3.34 0-9.764.556-9.764 6.215 0 3.576 2.946 5.65 5.424 5.65 3.062 0 4.094-1.264 4.93-2.289a11.6 11.6 0 01.422-.498c0 1.198.822 2.222 2.243 2.222h2.712v-2.26h-2.17c-.368 0-.542-.181-.542-.565v-9.04zm-2.17 3.39c0 3.055-2.088 6.78-5.425 6.78-2.313 0-3.254-1.585-3.254-3.39 0-3.585 6.24-3.955 7.594-3.955h1.085v.565zM47.193 5.708c3.722 0 5.967 1.524 5.967 6.216v9.04c0 .384.174.565.542.565h2.17v2.26H53.16c-1.42 0-2.243-1.024-2.243-2.222-.14.154-.278.323-.421.498-.837 1.025-1.87 2.29-4.93 2.29-2.479 0-5.425-2.075-5.425-5.651 0-5.66 6.423-6.215 9.764-6.215h1.085v-.565c0-3.264-1.485-3.956-3.797-3.956-1.58 0-3.56.861-4.385 1.36a.645.645 0 01-.852-.17L40.94 7.831s2.531-2.123 6.253-2.123zm-1.627 16.386c3.336 0 5.424-3.725 5.424-6.78v-.565h-1.085c-1.354 0-7.594.37-7.594 3.955 0 1.805.942 3.39 3.255 3.39zM72.688 5.708c3.722 0 5.967 1.524 5.967 6.216v9.04c0 .384.174.565.542.565h2.17v2.26h-2.712c-1.421 0-2.243-1.024-2.243-2.222-.14.154-.278.323-.421.498-.837 1.025-1.87 2.29-4.93 2.29-2.479 0-5.425-2.075-5.425-5.651 0-5.66 6.423-6.215 9.764-6.215h1.085v-.565c0-3.264-1.485-3.956-3.797-3.956-1.58 0-3.56.861-4.385 1.36a.645.645 0 01-.852-.17l-1.016-1.327s2.531-2.123 6.253-2.123zm-1.627 16.386c3.336 0 5.424-3.725 5.424-6.78v-.565H75.4c-1.354 0-7.594.37-7.594 3.955 0 1.805.942 3.39 3.255 3.39z" fill="#202123"/><path d="M36.344 21.529V5.709H24.953v2.26h2.712l-4.34 12.43-4.34-12.43h2.17v-2.26H13.02s.466.652 1.161 1.573c.402.532.948.686 1.551.686h1.085L22.24 23.79h2.17l5.425-15.82h4.34v13.56h-1.628c-.543 0-1.085.589-1.085 1.13v1.13h8.137v-2.26h-3.255zM3.437 34.972c-.355.227-.777.34-1.269.34-.65 0-1.173-.232-1.57-.696C.198 34.152 0 33.544 0 32.792c0-.79.223-1.438.672-1.941.447-.502 1.022-.754 1.725-.754.363 0 .716.078 1.058.232v.506a2.037 2.037 0 00-1.124-.33c-.56 0-1.013.208-1.362.628-.349.42-.523.963-.523 1.63 0 .644.16 1.162.478 1.554.318.391.74.587 1.263.587.477 0 .894-.132 1.249-.397v.465h.001zm1.25-2.247c0 .682.15 1.217.454 1.602.303.385.718.578 1.246.578.535 0 1.058-.206 1.569-.617v.476a2.717 2.717 0 01-1.656.548c-.616 0-1.114-.228-1.493-.69-.378-.459-.568-1.11-.568-1.948 0-.724.197-1.336.594-1.833a1.887 1.887 0 011.545-.745c.594 0 1.05.218 1.368.65.316.435.475 1.027.475 1.78v.198H4.686zm3.085-.408c-.017-.574-.15-1.02-.396-1.337-.246-.317-.585-.475-1.016-.475a1.46 1.46 0 00-1.112.469c-.295.311-.475.759-.543 1.343h3.067zm2.081 1.99h-.019v3.172h-.43v-7.261h.43v1.024h.019a1.935 1.935 0 011.786-1.146c.606 0 1.079.218 1.42.654.34.434.51 1.026.51 1.776 0 .832-.195 1.504-.585 2.017-.39.513-.906.77-1.545.77-.715 0-1.244-.335-1.586-1.005zm-.02-1.85v.627c0 .498.152.927.452 1.284.303.357.7.537 1.19.537.488 0 .885-.218 1.189-.653.305-.436.457-1.008.457-1.718 0-.621-.14-1.114-.419-1.48a1.336 1.336 0 00-1.12-.549c-.556 0-.986.194-1.292.582a2.16 2.16 0 00-.457 1.37zm8.302 1.312c0 .21-.036.4-.106.575a1.32 1.32 0 01-.751.743 1.55 1.55 0 01-.576.104h-1.95v-4.973h1.814c.24 0 .446.03.618.092.173.061.315.146.427.252a.989.989 0 01.25.38c.053.144.08.302.08.471 0 .151-.02.293-.061.424-.044.131-.102.25-.177.355a1.064 1.064 0 01-.651.415c.177.02.332.063.468.129a1.1 1.1 0 01.339.252c.089.103.157.22.206.353.046.133.07.276.07.428zm-.64-2.288c0-.114-.016-.222-.05-.327a.652.652 0 00-.165-.271.823.823 0 00-.303-.186 1.306 1.306 0 00-.466-.072h-1.329v1.802h1.213c.212 0 .387-.026.529-.079a.922.922 0 00.339-.214.778.778 0 00.178-.303c.036-.114.054-.23.054-.35zm.191 2.326c0-.133-.02-.259-.062-.376a.784.784 0 00-.205-.309 1.02 1.02 0 00-.38-.209 1.876 1.876 0 00-.578-.078h-1.278v1.948h1.43c.179 0 .333-.023.467-.071a.898.898 0 00.336-.2.795.795 0 00.203-.308c.044-.118.067-.251.067-.397zm4.944 1.384v-4.158a5.74 5.74 0 00-.073.108 1.036 1.036 0 01-.057.081l-2.869 3.97h-.304v-4.974h.43v4.118c.019-.035.036-.07.056-.101a.677.677 0 01.06-.088l2.845-3.929h.345v4.974h-.433zm5.05-.219c-.354.227-.776.34-1.268.34-.65 0-1.173-.232-1.571-.696-.398-.464-.597-1.072-.597-1.824 0-.79.223-1.438.672-1.941.447-.502 1.021-.754 1.725-.754.363 0 .716.078 1.059.232v.506a2.037 2.037 0 00-1.124-.33c-.56 0-1.014.208-1.363.628-.348.42-.522.963-.522 1.63 0 .644.16 1.162.478 1.554.318.391.74.587 1.262.587.478 0 .895-.132 1.25-.397v.465zm7.01.22v-4.567h-2.817v4.566h-.43v-4.973h3.676v4.973h-.429zm3.876.12c-.697 0-1.248-.238-1.654-.715-.406-.478-.608-1.098-.608-1.863 0-.825.211-1.472.637-1.938.423-.468.981-.7 1.676-.7.681 0 1.218.23 1.613.695.396.463.593 1.104.593 1.923 0 .775-.202 1.401-.605 1.88-.402.48-.954.718-1.652.718zm.032-4.807c-.562 0-1.011.197-1.345.591-.335.396-.502.945-.502 1.647 0 .651.163 1.173.49 1.57.327.394.773.591 1.338.591.576 0 1.019-.194 1.329-.582.312-.39.466-.928.466-1.618 0-.709-.154-1.253-.463-1.631-.31-.38-.746-.568-1.313-.568zm6.1 4.686l-2.243-2.438h-.02v2.438h-.429v-4.973h.43v2.375h.019l2.213-2.375h.556l-2.313 2.429L45.3 35.19h-.602zm2.629 1.015c-.174.448-.368.78-.578.996-.211.217-.484.325-.816.325a.94.94 0 01-.373-.068v-.446c.111.045.241.068.392.068.382 0 .683-.275.904-.826l.443-1.102-1.808-4.936h.479l1.442 4.05c.03.088.053.154.066.199.01.063.025.118.04.166h.02l.111-.335 1.539-4.08h.467l-2.328 5.99zm6.408-1.015v-4.566H50.92v4.566h-.43v-4.973h3.675v4.973h-.429zm4.65 0l-2.243-2.438h-.02v2.438h-.429v-4.973h.43v2.375h.02l2.213-2.375h.555L56.6 32.647l2.387 2.544h-.601zm4.765 0v-4.158c-.025.037-.05.072-.073.108a1.064 1.064 0 01-.057.081l-2.869 3.97h-.303v-4.974h.43v4.118c.018-.035.036-.07.055-.101a.677.677 0 01.06-.088l2.846-3.929h.345v4.974h-.434zm7.429 0v-.996h-.017c-.153.34-.374.612-.665.814-.29.202-.613.303-.969.303-.453 0-.812-.132-1.076-.397-.264-.266-.396-.6-.396-1.005 0-.869.551-1.393 1.656-1.575l1.467-.227c0-1.07-.385-1.603-1.155-1.603-.526 0-1.037.22-1.535.66v-.54c.177-.146.417-.27.72-.374.303-.103.588-.154.856-.154.491 0 .872.157 1.14.475.268.317.403.78.403 1.385v3.235h-.43zm-1.315-2.477c-.5.075-.852.196-1.053.361-.202.168-.302.438-.302.815 0 .295.093.537.281.727.188.193.45.287.787.287.46 0 .841-.177 1.145-.532.306-.354.457-.81.457-1.371v-.486l-1.315.2zm6.563 1.055c0 .21-.035.4-.106.575a1.321 1.321 0 01-.751.743 1.55 1.55 0 01-.576.104h-1.95v-4.973h1.814c.24 0 .446.03.618.092.173.061.315.146.427.252a.982.982 0 01.25.38c.053.144.08.302.08.471 0 .151-.02.293-.061.424-.044.131-.102.25-.177.355a1.064 1.064 0 01-.651.415c.177.02.332.063.468.129a1.1 1.1 0 01.339.252c.09.103.158.22.206.353.046.133.07.276.07.428zm-.64-2.288c0-.114-.016-.222-.05-.327a.655.655 0 00-.165-.271.827.827 0 00-.302-.186 1.307 1.307 0 00-.466-.072h-1.33v1.802h1.214c.212 0 .386-.026.528-.079a.922.922 0 00.34-.214.785.785 0 00.177-.303c.037-.114.054-.23.054-.35zm.191 2.326c0-.133-.021-.259-.062-.376a.785.785 0 00-.206-.309 1.02 1.02 0 00-.379-.209 1.878 1.878 0 00-.579-.078h-1.278v1.948h1.431c.178 0 .332-.023.466-.071a.9.9 0 00.336-.2.807.807 0 00.204-.308c.045-.118.067-.251.067-.397zm4.944 1.384v-4.158a5.74 5.74 0 00-.073.108 1.064 1.064 0 01-.057.081l-2.869 3.97h-.304v-4.974h.43v4.118c.019-.035.036-.07.055-.101a.667.667 0 01.061-.088l2.845-3.929h.345v4.974h-.433zm4.812 0v-.996h-.017c-.153.34-.374.612-.666.814-.29.202-.612.303-.968.303-.453 0-.812-.132-1.076-.397-.264-.266-.397-.6-.397-1.005 0-.869.552-1.393 1.656-1.575l1.467-.227c0-1.07-.385-1.603-1.155-1.603-.526 0-1.037.22-1.535.66v-.54c.177-.146.418-.27.721-.374a2.66 2.66 0 01.855-.154c.492 0 .872.157 1.14.475.268.317.404.78.404 1.385v3.235h-.43zm-1.315-2.477c-.5.075-.852.196-1.053.361-.203.168-.303.438-.303.815 0 .295.094.537.282.727.188.193.45.287.786.287.46 0 .843-.177 1.147-.532.305-.354.456-.81.456-1.371v-.486l-1.315.2zm7.247.102c0 .192-.016.386-.05.583-.031.197-.083.39-.155.575-.072.186-.162.36-.272.523a1.834 1.834 0 01-.928.711c-.201.07-.425.105-.674.105-.348 0-.655-.07-.921-.21a1.845 1.845 0 01-.667-.608 2.959 2.959 0 01-.406-.97 5.543 5.543 0 01-.137-1.296c0-.563.032-1.054.097-1.474.065-.42.158-.778.276-1.074.121-.295.263-.538.429-.727.164-.187.345-.333.544-.436.125-.064.262-.12.41-.167a6.481 6.481 0 01.908-.224l.422-.076c.108-.022.226-.053.35-.092.124-.04.229-.09.316-.15v.47c-.069.045-.16.088-.272.13-.114.039-.242.072-.385.099-.137.021-.28.048-.431.074-.152.028-.3.058-.443.093a4.715 4.715 0 00-.416.116 1.854 1.854 0 00-.346.153c-.274.169-.495.452-.662.854-.17.4-.271.932-.31 1.595h.02c.068-.14.159-.274.272-.401a1.96 1.96 0 011.453-.653c.346 0 .642.066.892.197.248.13.452.31.612.537.16.226.279.489.357.789.079.299.117.617.117.954zm-.476.06c0-.326-.032-.618-.097-.876a1.938 1.938 0 00-.296-.663 1.35 1.35 0 00-.497-.423 1.562 1.562 0 00-.695-.147c-.187 0-.363.031-.529.095a1.9 1.9 0 00-.464.255c-.144.106-.27.232-.382.375a2.49 2.49 0 00-.285.456c0 .055-.002.13-.005.226a8.561 8.561 0 00-.005.285c0 .323.032.632.096.927.065.296.163.556.299.78.135.225.308.406.52.54.21.134.467.2.764.2.26 0 .49-.054.687-.162.198-.108.363-.255.496-.442.132-.186.23-.402.296-.648.065-.248.097-.507.097-.779zm4.963 2.316v-4.16l-.073.109a.924.924 0 01-.058.081l-2.868 3.97h-.304v-4.974h.43v4.118c.019-.035.036-.07.055-.101a.73.73 0 01.06-.088l2.846-3.929h.345v4.974h-.433zm4.785 0v-4.567h-1.394a26.682 26.682 0 01-.207 1.97 8.24 8.24 0 01-.336 1.456c-.139.395-.309.695-.51.9a.99.99 0 01-.999.271v-.4c.024.01.066.02.121.027a.96.96 0 00.136.014c.208 0 .39-.102.546-.304.154-.202.288-.501.4-.894.112-.395.206-.88.283-1.457.076-.578.137-1.242.185-1.99h2.204v4.975h-.429v-.002zm2.061-2.467c0 .682.152 1.217.456 1.602.302.385.717.578 1.246.578.534 0 1.057-.206 1.568-.617v.476a2.72 2.72 0 01-1.656.548c-.615 0-1.114-.228-1.493-.69-.378-.459-.568-1.11-.568-1.948 0-.724.197-1.336.594-1.833a1.887 1.887 0 011.545-.745c.594 0 1.051.218 1.368.65.317.435.476 1.027.476 1.78v.198h-3.536zm3.086-.408c-.017-.574-.149-1.02-.396-1.337-.245-.317-.584-.475-1.016-.475a1.46 1.46 0 00-1.112.469c-.295.311-.475.759-.543 1.343h3.067zm2.854-1.692v4.566h-.428v-4.566h-1.432v-.407h3.291v.407h-1.431zm3.965 4.687c-.698 0-1.248-.238-1.654-.715-.406-.478-.608-1.098-.608-1.863 0-.825.212-1.472.637-1.938.423-.468.982-.7 1.676-.7.681 0 1.218.23 1.613.695.396.463.593 1.104.593 1.923 0 .775-.202 1.401-.605 1.88-.402.48-.953.718-1.652.718zm.032-4.807c-.562 0-1.011.197-1.345.591-.334.396-.502.945-.502 1.647 0 .651.163 1.173.491 1.57.326.394.772.591 1.337.591.576 0 1.019-.194 1.33-.582.311-.39.466-.928.466-1.618 0-.709-.155-1.253-.463-1.631-.312-.38-.748-.568-1.314-.568zm6.79 3.264c0 .21-.034.4-.105.575-.07.173-.169.323-.296.45-.129.125-.28.223-.455.293a1.55 1.55 0 01-.576.104h-1.95v-4.973h1.814c.24 0 .445.03.617.092.174.061.316.146.427.252a.984.984 0 01.25.38c.054.144.081.302.081.471 0 .151-.021.293-.062.424-.044.131-.102.25-.177.355a1.05 1.05 0 01-.651.415c.177.02.333.063.468.129.136.067.249.15.339.252.089.103.158.22.206.353a1.3 1.3 0 01.07.428zm-.639-2.288c0-.114-.016-.222-.05-.327a.647.647 0 00-.166-.271.811.811 0 00-.302-.186 1.305 1.305 0 00-.466-.072h-1.329v1.802h1.213c.212 0 .386-.026.529-.079a.93.93 0 00.339-.214.794.794 0 00.178-.303c.036-.114.054-.23.054-.35zm.19 2.326c0-.133-.02-.259-.062-.376a.778.778 0 00-.205-.309 1.029 1.029 0 00-.379-.209 1.873 1.873 0 00-.579-.078h-1.278v1.948h1.431c.178 0 .332-.023.466-.071a.896.896 0 00.336-.2.796.796 0 00.204-.308c.044-.118.066-.251.066-.397z" fill="#202123"/><path d="M138.252.023s1.86-.156 2.73.343c.818.468 9.33 12.204 10.693 14.096.171.237.44.393.744.405 5.009.19 9.032 1.026 9.294 2.508a.518.518 0 01.022.16.517.517 0 01-.022.16c-.262 1.482-4.285 2.318-9.294 2.508a.965.965 0 00-.744.405c-1.363 1.892-9.875 13.628-10.693 14.097-.87.498-2.73.342-2.73.342s4.08-9.127 4.65-11.09c.48-1.682.63-3.302.57-3.956-4.44-.25-8.461-.623-10.321-.966l-3.57 4.361s-.15.187-.48.218c-.3.031-1.56.031-1.56.031l1.47-5.545s-.48-.187-.81-.311c-.27-.094-.3-.223-.3-.254s.03-.16.3-.253c.33-.125.81-.312.81-.312l-1.47-5.545s1.26 0 1.56.031c.33.031.48.218.48.218l3.57 4.361c1.86-.342 5.881-.716 10.321-.965.06-.655-.09-2.274-.57-3.957-.57-1.962-4.65-11.09-4.65-11.09z" fill="#55BB06"/></svg>